<svg width="191" height="62" viewBox="0 0 191 62" fill="none" xmlns="http://www.w3.org/2000/svg">
<g clip-path="url(#clip0_3711_19418)">
<path d="M140.363 14.1603C140.666 12.5711 142.025 11.4752 143.851 11.4752C145.812 11.4752 147.122 12.57 147.122 14.3863V14.763L143.747 15.106C138.478 15.6534 136.135 17.4679 136.135 20.857H136.137V20.8534C136.137 23.8337 138.512 25.922 142.163 25.922C144.367 25.922 146.364 24.8272 147.122 23.4569V25.6483H151.495V14.9656C151.495 10.5493 148.326 8.11816 143.849 8.11816C140.222 8.11816 137.385 10.2871 136.678 12.85L140.363 14.1603ZM147.122 18.1521C147.122 20.6188 145.538 22.6039 143.023 22.6039C141.437 22.6039 140.439 21.8841 140.439 20.6845C140.439 19.2487 141.507 18.5626 143.917 18.2889L147.122 17.8784V18.1521Z" fill="#040154"/>
<path d="M113.81 19.8949V11.9154H111.021V8.3877H113.81V4.17578H118.184V8.3877H122.282V11.9154H118.184V19.5165C118.184 21.2616 119.078 22.1518 120.526 22.1518C121.112 22.1518 121.87 22.015 122.42 21.8089V25.4735C121.662 25.7809 120.836 25.9195 119.94 25.9195C116.427 25.9195 113.81 23.7976 113.81 19.8931V19.8949Z" fill="#040154"/>
<path d="M124.349 8.39184H128.723V10.7199C129.687 9.14358 131.719 8.11816 133.82 8.11816C134.544 8.11816 135.198 8.22124 135.748 8.46115V12.57C134.956 12.2608 134.164 12.1595 133.406 12.1595C130.891 12.1595 128.721 14.2814 128.721 19.1099V25.65H124.348V8.39184H124.349Z" fill="#040154"/>
<path d="M153.168 17.0224C153.168 11.5789 156.577 8.12052 161.711 8.12052C163.915 8.12052 166.017 9.04644 166.946 10.5162V0.0166016H171.353V25.6524H166.946V23.4966C166.014 24.9699 163.879 25.9279 161.711 25.9279C156.579 25.9279 153.168 22.4694 153.168 17.0259V17.0224ZM162.263 22.2259C165.051 22.2259 166.948 20.0702 166.948 17.0206C166.948 13.9711 165.053 11.817 162.263 11.817C159.472 11.817 157.578 13.9052 157.578 17.0206C157.578 20.136 159.542 22.2259 162.263 22.2259Z" fill="#040154"/>
<path d="M84.711 17.9803L82.4026 20.2054V25.6488H78.0293V0.0166016H82.4026V14.4881L88.912 8.39421H94.6994L87.8797 14.9342L95.2855 25.6524H90.0502L84.711 17.9821L84.711 17.9803Z" fill="#FF3F3F"/>
<path d="M53.7094 20.0004C53.2953 21.4061 51.9869 22.2946 50.0226 22.2946C47.5762 22.2946 45.7857 20.7895 45.4416 17.946H58.2205C58.9786 12.4651 55.5357 8.11816 49.8506 8.11816C44.7892 8.11816 41.1025 11.8165 41.1025 17.02C41.1025 22.2236 44.6511 25.9218 50.0568 25.9218C53.815 25.9218 56.5304 24.1519 57.6344 21.4149L53.7076 19.9968L53.7094 20.0004ZM49.8542 11.4735C52.0927 11.4735 53.6412 12.7761 53.7112 14.7612H45.6513C46.2032 12.57 47.6156 11.4735 49.8542 11.4735Z" fill="#FF3F3F"/>
<path d="M68.5522 22.2235C66.0054 22.2235 64.0751 20.0677 64.0751 16.9861C64.0751 13.9045 66.0054 11.8145 68.5522 11.8145C70.5506 11.8145 72.031 12.9803 72.3752 14.7593H72.3805L76.4346 13.2967C75.4454 10.1013 72.6386 8.11621 68.5182 8.11621C63.3528 8.11621 59.666 11.8501 59.666 16.9843C59.666 22.1186 63.3834 25.92 68.5522 25.92C72.5133 25.92 75.4436 23.718 76.4974 20.7306L72.4791 19.2804C72.1332 21.0932 70.6188 22.2217 68.5522 22.2217V22.2235Z" fill="#FF3F3F"/>
<path d="M185.45 20.0004C185.035 21.4061 183.728 22.2946 181.764 22.2946C179.317 22.2946 177.527 20.7895 177.182 17.946H189.962C190.72 12.4651 187.276 8.11816 181.591 8.11816C176.53 8.11816 172.843 11.8165 172.843 17.02C172.843 22.2236 176.392 25.9218 181.797 25.9218C185.556 25.9218 188.271 24.1519 189.376 21.4149L185.448 19.9968L185.45 20.0004ZM181.595 11.4735C183.833 11.4735 185.383 12.7761 185.452 14.7612H177.392C177.944 12.57 179.357 11.4735 181.595 11.4735Z" fill="#040154"/>
<path d="M33.1305 8.12126C30.4116 8.12126 28.3773 9.35106 27.483 10.6537V2.24414L23.1206 7.39972L23.1099 25.6531H27.483V18.1534C27.483 14.217 29.1354 11.9226 31.8561 11.9226C33.8528 11.9226 35.197 13.2591 35.197 15.4841V25.6531H39.5701V14.5582C39.5701 10.5169 36.8834 8.12126 33.1286 8.12126L33.1305 8.12126Z" fill="#FF3F3F"/>
<path d="M14.5328 11.0748C14.1259 11.711 13.737 12.3579 13.3588 13.0101C13.0112 12.4805 12.6617 11.9527 12.3086 11.4231L12.305 11.4196C11.6168 10.4119 7.4264 11.8159 7.89599 12.5569C8.8656 14.0053 11.0307 17.3002 11.14 17.4655C11.6454 18.2208 12.4806 18.2991 14.1116 17.9098C14.9862 17.6681 15.3841 16.8311 15.5203 16.5218C15.6404 16.2553 16.2767 14.9064 16.6226 14.2417C17.6747 12.2033 18.8773 10.2253 20.2143 8.3326C20.5298 7.88831 20.8487 7.44936 21.1786 7.01572C21.8578 6.11825 22.5657 5.2421 23.3024 4.39083C23.4459 4.22555 23.591 4.06028 23.7361 3.89677C24.6699 2.84469 26.1754 1.3643 27.154 0.360197C27.5609 -0.0592164 24.2524 -0.292028 23.1644 0.699637C22.08 1.73218 20.5459 3.32098 19.5476 4.44414C18.7035 5.39493 17.8933 6.37594 17.1226 7.38359C15.943 8.92597 14.5329 11.0745 14.5328 11.0748Z" fill="#040154"/>
<path d="M18.2365 18.1412C17.2704 20.67 14.7451 21.9531 12.0208 21.9531C7.81793 21.9531 4.68502 18.9052 4.68502 13.6662C4.68502 8.42711 7.78567 5.37921 12.0208 5.37921C13.3901 5.37921 14.5372 5.63691 15.6054 6.21271L18.2365 3.10265C16.5445 2.0328 14.4189 1.40723 12.019 1.40723C5.13129 1.40901 0 5.92836 0 13.668C0 21.4076 5.23524 25.9251 12.0208 25.9251C16.9854 25.9251 20.6095 23.2611 22.0002 19.5006L18.2365 18.1412Z" fill="#FF3F3F"/>
<path d="M99.1306 14.1603C99.4344 12.5711 100.793 11.4752 102.619 11.4752C104.58 11.4752 105.89 12.57 105.89 14.3863V14.763L102.515 15.106C97.2459 15.6534 94.9033 17.4679 94.9033 20.857H94.9051V20.8534C94.9051 23.8337 97.2799 25.922 100.931 25.922C103.135 25.922 105.132 24.8272 105.89 23.4569V25.6483H110.263V14.9656C110.263 10.5493 107.094 8.11816 102.617 8.11816C98.9903 8.11816 96.153 10.2871 95.4463 12.85L99.1306 14.1603ZM105.89 18.1521C105.89 20.6188 104.306 22.6039 101.791 22.6039C100.205 22.6039 99.2066 21.8841 99.2066 20.6845C99.2066 19.2487 100.275 18.5626 102.685 18.2889L105.89 17.8784V18.1521Z" fill="#FF3F3F"/>
</g>
<path d="M59.9731 62.0004V39.101H64.2125V41.1707C65.1806 39.802 67.2168 38.834 69.42 38.834C74.3603 38.834 77.5983 42.2388 77.5983 47.513C77.5983 52.7872 74.3603 56.1921 69.42 56.1921C67.2502 56.1921 65.1806 55.224 64.2125 53.822V62.0004H59.9731ZM68.7523 52.5536C71.4228 52.5536 73.3255 50.5173 73.3255 47.513C73.3255 44.4754 71.4228 42.4391 68.7523 42.4391C66.0819 42.4391 64.2125 44.4754 64.2125 47.513C64.2125 50.4839 66.0819 52.5536 68.7523 52.5536Z" fill="#040154"/>
<path d="M48.3253 56.1921C43.218 56.1921 39.5127 52.5536 39.5127 47.4797C39.5127 42.4057 43.218 38.834 48.3253 38.834C53.4326 38.834 57.1378 42.4057 57.1378 47.4797C57.1378 52.5869 53.4326 56.1921 48.3253 56.1921ZM48.3253 52.5869C50.9957 52.5869 52.8651 50.5173 52.8651 47.4797C52.8651 44.5087 50.9957 42.4391 48.3253 42.4391C45.6548 42.4391 43.7855 44.4754 43.7855 47.4797C43.7855 50.5173 45.6548 52.5869 48.3253 52.5869Z" fill="#040154"/>
<path d="M20.8877 55.9247V32.291H25.1271V41.3039C25.995 40.0354 27.9645 38.8337 30.6016 38.8337C34.2401 38.8337 36.8438 41.1703 36.8438 45.1093V55.9247H32.6044V46.0106C32.6044 43.8408 31.3026 42.539 29.3665 42.539C26.7294 42.539 25.1271 44.7755 25.1271 48.6143V55.9247H20.8877Z" fill="#040154"/>
<path d="M9.58033 56.1918C4.00571 56.1918 0.433952 53.0206 0 47.8465H4.43967C4.77348 50.6839 6.60943 52.3196 9.58033 52.3196C11.7167 52.3196 13.4191 51.3849 13.4191 49.2819C13.4191 44.5752 0.968047 47.3458 0.968047 38.9004C0.968047 34.9281 4.60657 32.291 9.04624 32.291C14.0868 32.291 17.1912 34.8613 17.7587 39.4012H13.319C12.9518 37.3983 11.216 36.1632 8.94609 36.1632C6.84309 36.1632 5.50786 37.198 5.50786 38.7002C5.50786 42.9729 17.9923 40.0354 17.9923 48.9815C17.9923 53.6214 14.287 56.1918 9.58033 56.1918Z" fill="#040154"/>
<defs>
<clipPath id="clip0_3711_19418">
<rect width="190.067" height="26.1879" fill="white"/>
</clipPath>
</defs>
</svg>
