<svg viewBox="0 0 228 219" fill="none" xmlns="http://www.w3.org/2000/svg" class="w-full h-full" preserveAspectRatio="xMidYMid meet">
<g id="CAT icon">
<path id="Vector" d="M122.994 93.2126C120.386 97.3333 117.894 101.523 115.47 105.747C113.241 102.317 111.001 98.8986 108.738 95.4686L108.715 95.4456C104.304 88.9193 77.4455 98.0124 80.4554 102.812C86.6702 112.193 100.547 133.533 101.248 134.604C104.488 139.495 109.841 140.002 120.295 137.481C125.901 135.916 128.451 130.494 129.324 128.492C130.093 126.765 134.172 118.029 136.389 113.724C143.132 100.522 150.84 87.7107 159.41 75.4523C161.432 72.5747 163.476 69.7317 165.591 66.9232C169.944 61.1106 174.482 55.436 179.203 49.9225C180.123 48.8521 181.053 47.7817 181.983 46.7227C187.968 39.9086 197.618 30.3206 203.89 23.8173C206.498 21.1008 185.292 19.593 178.319 26.0157C171.368 32.7032 161.536 42.9934 155.137 50.2678C149.726 56.4258 144.534 62.7795 139.594 69.3058C132.033 79.2953 122.995 93.2111 122.994 93.2126Z" fill="#040154" style="fill: rgb(4, 1, 84);"/>
<path id="Vector_2" d="M146.729 138.977C140.537 155.355 124.351 163.666 106.89 163.666C79.9511 163.666 59.8706 143.925 59.8706 109.993C59.8706 76.0615 79.7443 56.3211 106.89 56.3211C115.666 56.3211 123.018 57.9902 129.865 61.7195L146.729 41.5765C135.885 34.6474 122.26 30.5957 106.878 30.5957C62.731 30.6072 29.8418 59.8778 29.8418 110.005C29.8418 160.132 63.3972 189.391 106.89 189.391C138.71 189.391 161.939 172.137 170.853 147.782L146.729 138.977Z" fill="#FF3F3F" style="fill: rgb(255, 63, 63);"/>
</g>
</svg>